<svg width="25" height="25" viewBox="0 0 25 25" fill="none" xmlns="http://www.w3.org/2000/svg">
<path d="M11.25 5H13.75V12.5H15V13.75H16.25V15H17.5V17.5H15V16.25H13.75V15H12.5V13.75H11.25V5ZM17.5 0V1.25H20V2.5H21.25V3.75H22.5V5H23.75V7.5H25V17.5H23.75V20H22.5V21.25H21.25V22.5H20V23.75H17.5V25H7.5V23.75H5V22.5H3.75V21.25H2.5V20H1.25V17.5H0V7.5H1.25V5H2.5V3.75H3.75V2.5H5V1.25H7.5V0H17.5ZM16.25 2.5H8.75V3.75H6.25V5H5V6.25H3.75V8.75H2.5V16.25H3.75V18.75H5V20H6.25V21.25H8.75V22.5H16.25V21.25H18.75V20H20V18.75H21.25V16.25H22.5V8.75H21.25V6.25H20V5H18.75V3.75H16.25V2.5Z" fill="#607CA1"/>
</svg>
