<svg width="25" height="25" viewBox="0 0 25 25" fill="none" xmlns="http://www.w3.org/2000/svg">
<mask id="path-1-inside-1_270_2218" fill="white">
<path d="M23.75 15V13.75H16.25V12.5H15V11.25H13.75V10H12.5V8.75H11.25V1.25H10V0H2.5V1.25H1.25V2.5H0V11.25H1.25V12.5H2.5V13.75H3.75V15H5V16.25H6.25V17.5H7.5V18.75H8.75V20H10V21.25H11.25V22.5H12.5V23.75H13.75V25H22.5V23.75H23.75V22.5H25V15H23.75ZM22.5 20H21.25V21.25H20V22.5H16.25V21.25H15V20H13.75V18.75H12.5V17.5H11.25V16.25H10V15H8.75V13.75H7.5V12.5H6.25V11.25H5V10H3.75V8.75H2.5V5H3.75V3.75H5V2.5H7.5V3.75H8.75V6.25H7.5V10H8.75V11.25H10V12.5H11.25V13.75H12.5V15H13.75V16.25H15V17.5H18.75V16.25H21.25V17.5H22.5V20Z"/>
</mask>
<path d="M23.75 15V13.75H16.25V12.5H15V11.25H13.75V10H12.5V8.75H11.25V1.25H10V0H2.5V1.25H1.25V2.5H0V11.25H1.25V12.5H2.5V13.75H3.75V15H5V16.25H6.25V17.5H7.5V18.75H8.75V20H10V21.25H11.25V22.5H12.5V23.75H13.75V25H22.5V23.75H23.75V22.5H25V15H23.75ZM22.5 20H21.25V21.25H20V22.5H16.25V21.25H15V20H13.75V18.75H12.5V17.5H11.25V16.25H10V15H8.75V13.75H7.5V12.5H6.25V11.25H5V10H3.75V8.75H2.5V5H3.75V3.75H5V2.5H7.5V3.75H8.75V6.25H7.5V10H8.75V11.25H10V12.5H11.25V13.75H12.5V15H13.75V16.25H15V17.5H18.75V16.25H21.25V17.5H22.5V20Z" fill="#607CA1" stroke="black" stroke-width="0.4" mask="url(#path-1-inside-1_270_2218)"/>
</svg>
