<svg width="27" height="26" viewBox="0 0 27 26" fill="none" xmlns="http://www.w3.org/2000/svg">
<path fill-rule="evenodd" clip-rule="evenodd" d="M6.51724 0.696429V1.39286H5.58621H4.65517V1.85714V2.32143H3.9569H3.25862V3.01786V3.71429H2.56034H1.86207V4.64286V5.57143H1.39655H0.931034V6.73214V7.89286H0.465517H0V12.3036V16.7143H0.465517H0.931034V17.875V19.0357H1.39655H1.86207V20.1964V21.3571H2.56034H3.25862V22.0536V22.75H3.72414H4.18966V23.4464V24.1429H5.35345H6.51724V24.6071V25.0714H7.68103H8.84483V25.5357V26H12.1034H15.3621V25.3036V24.6071H14.431H13.5V24.1429V23.6786H13.0345H12.569V22.75V21.8214H13.0345H13.5V20.8929V19.9643H15.3621H17.2241V20.1964V20.4286H18.3879H19.5517V20.6607V20.8929H20.7155H21.8793V21.5893V22.2857H20.7155H19.5517V22.75V23.2143H19.0862H18.6207V23.6786V24.1429H17.9224H17.2241V24.6071C17.2241 25.0436 17.2055 25.0714 16.9914 25.0714C16.7772 25.0714 16.7586 25.0993 16.7586 25.5357V26H17.2241H17.6897V25.5357V25.0714H18.8534H20.0172V24.375V23.6786H21.4138H22.8103V22.9821V22.2857H23.5086H24.2069V21.5893V20.8929H24.6724H25.1379V20.1964V19.5H25.6034H26.069V18.3393V17.1786H26.5345H27V15.0893V13H26.3017H25.6034V13.9286V14.8571H24.9052H24.2069V12.5357V10.2143H24.6724H25.1379V7.19643V4.17857H24.6724H24.2069V3.71429V3.25H23.2759H22.3448V3.71429V4.17857H22.8103H23.2759V6.5V8.82143H22.8103H22.3448V7.89286V6.96429H21.6466C20.9669 6.96429 20.9483 6.97357 20.9483 7.19643C20.9483 7.41 20.9203 7.42857 20.4828 7.42857H20.0172V6.73214V6.03571H20.7155H21.4138V5.10714V4.17857H20.9483H20.4828V4.64286V5.10714H19.7845H19.0862V4.41071V3.71429H18.6207H18.1552V3.01786V2.32143H17.6897H17.2241V1.625V0.928571H15.8276H14.431V1.16071C14.431 1.38357 14.4124 1.39286 13.7328 1.39286H13.0345V0.928571V0.464286H11.8707H10.7069V1.16071V1.85714H10.0086H9.31034V2.55357V3.25H8.14655H6.98276V2.78571V2.32143H7.44828H7.91379V1.85714V1.39286H8.61207H9.31034V0.696429V0H7.91379H6.51724V0.696429ZM15.3621 4.41071V5.10714H16.0603H16.7586V6.5V7.89286H16.2931H15.8276V7.19643V6.5H15.1293H14.431V5.10714V3.71429H14.8966H15.3621V4.41071ZM8.84483 5.10714V5.57143H9.31034H9.77586V6.03571V6.5H10.2414H10.7069V6.03571V5.57143H11.4052H12.1034V5.10714V4.64286H12.569H13.0345V5.57143V6.5H13.5H13.9655V7.42857V8.35714H12.569H11.1724V9.28571V10.2143H12.3362H13.5V9.75V9.28571H14.431H15.3621V9.75V10.2143H15.8276H16.2931V10.6786V11.1429H15.1293H13.9655V12.3036V13.4643H13.5H13.0345V15.0893V16.7143H12.3362H11.6379V16.25V15.7857H10.4741H9.31034V16.9464V18.1071H10.0086H10.7069V18.5714V19.0357H11.1724H11.6379V19.9643V20.8929H11.1724H10.7069V20.4286V19.9643H10.2414H9.77586V19.5V19.0357H9.07759H8.37931V18.5714V18.1071H7.91379H7.44828V16.7143V15.3214H6.98276H6.51724V14.625V13.9286H6.05172H5.58621V12.3036V10.6786H6.05172H6.51724V9.75V8.82143H6.98276H7.44828V7.42857V6.03571H6.75H6.05172V5.33929V4.64286H7.44828H8.84483V5.10714ZM14.8966 18.1071V18.5714H13.7328H12.569V18.1071V17.6429H13.7328H14.8966V18.1071Z" fill="#607CA1"/>
</svg>
